# xmcd
#
# Track frame offsets:
#	150
#	14630
#	27912
#	41052
#	52812
#	63807
#	74912
#	88232
#	99622
#	110370
#	120780
#	128780
#	141205
#	152582
#	166195
#	177797
#	190870
#	201480
#	209507
#	219482
#
# Disc length: 3072 seconds
# Revision: 1
# Processed by: cddbd v1.5.2PL0 Copyright (c) Steve Scherf et al.
# Submitted via: dBpowerAMP V12.0
#
DISCID=210bfe14
DTITLE=Pirigoso - Raízes Sertanejas
DYEAR=1998
DGENRE=Sertanejo
TTITLE0=Festa No Sertão
TTITLE1=Meu Presinho
TTITLE2=Sanfoneiro Do Sertão
TTITLE3=Pagodão Do Pirigoso
TTITLE4=Vamos Ao Circo
TTITLE5=Levantando Fumaça
TTITLE6=Minha Decisão
TTITLE7=Cana Verde
TTITLE8=Festa No Arraial
TTITLE9=Serenô
TTITLE10=Coisa Rica
TTITLE11=Fandango Em Uberaba
TTITLE12=Chora Neném
TTITLE13=Fugindo Da Sogra
TTITLE14=Descendo A Serra
TTITLE15=Cozinhando O Galo
TTITLE16=Morena Dos Olhos Pretos
TTITLE17=Cuca Fresca
TTITLE18=Vai Levando
TTITLE19=Lança De São Jorge
EXTD=
EXTT0=
EXTT1=
EXTT2=
EXTT3=
EXTT4=
EXTT5=
EXTT6=
EXTT7=
EXTT8=
EXTT9=
EXTT10=
EXTT11=
EXTT12=
EXTT13=
EXTT14=
EXTT15=
EXTT16=
EXTT17=
EXTT18=
EXTT19=
PLAYORDER=
